<svg xmlns="http://www.w3.org/2000/svg" width="100" height="100" viewBox="0 0 100 100" fill="none"><path d="M50 0C22.4 0 0 22.4 0 50s22.4 50 50 50 50-22.4 50-50S77.6 0 50 0z" fill="#FFD21E"/><path d="M28.5 42c0-4.4 3.6-8 8-8s8 3.6 8 8" stroke="#000" stroke-width="3" stroke-linecap="round"/><path d="M55.5 42c0-4.4 3.6-8 8-8s8 3.6 8 8" stroke="#000" stroke-width="3" stroke-linecap="round"/><circle cx="33" cy="48" r="4" fill="#000"/><circle cx="67" cy="48" r="4" fill="#000"/><path d="M35 62c0 0 5 8 15 8s15-8 15-8" stroke="#000" stroke-width="3" stroke-linecap="round"/><circle cx="31" cy="46" r="1.5" fill="#fff"/><circle cx="65" cy="46" r="1.5" fill="#fff"/></svg>
